<svg xmlns="http://www.w3.org/2000/svg" xmlns:xlink="http://www.w3.org/1999/xlink" viewBox="0,0,256,256" width="24px" height="24px" fill-rule="nonzero"><g fill="#ff5722" fill-rule="nonzero" stroke="none" stroke-width="1" stroke-linecap="butt" stroke-linejoin="miter" stroke-miterlimit="10" stroke-dasharray="" stroke-dashoffset="0" font-family="none" font-weight="none" font-size="none" text-anchor="none" style="mix-blend-mode: normal"><g transform="scale(8.53333,8.53333)"><path d="M18.39844,8.97266c-0.833,0 -1.64333,0.16245 -2.36133,0.43945c-0.278,0.108 -0.35052,0.21955 -0.35352,0.43555v11.71094c0.003,0.226 0.17648,0.40083 0.39648,0.42383c0.009,0.001 10.22852,0 10.22852,0c2.038,0 3.68945,-1.63387 3.68945,-3.67187c0.001,-2.039 -1.6495,-3.69141 -3.6875,-3.69141c-0.505,0 -0.98873,0.10211 -1.42773,0.28711c-0.293,-3.325 -3.08337,-5.93359 -6.48437,-5.93359zM14.92969,9.83594c-0.097,0 -0.18686,0.03575 -0.25586,0.09375c-0.09,0.074 -0.14839,0.18555 -0.15039,0.31055v0.04297l-0.16602,8.27148l0.08398,1.52734l0.08203,1.48828c0.003,0.22 0.1862,0.40234 0.4082,0.40234c0.21869,0 0.40114,-0.17921 0.40625,-0.40039v-0.00391l0.17969,-3.01367l-0.17969,-8.3125c-0.004,-0.148 -0.08417,-0.27666 -0.20117,-0.34766c-0.061,-0.037 -0.13203,-0.05859 -0.20703,-0.05859zM13.66992,10.55273c-0.075,0 -0.14508,0.02155 -0.20508,0.06055c-0.104,0.067 -0.17378,0.18536 -0.17578,0.31836v0.07226l-0.14258,7.54688c0,0.005 0.14258,3.06445 0.14258,3.06445c0,0.005 0,0.00867 0,0.01367c0.005,0.085 0.03784,0.16261 0.08984,0.22461c0.07,0.084 0.17597,0.13867 0.29297,0.13867c0.103,0 0.19763,-0.04133 0.26563,-0.11133c0.068,-0.068 0.11228,-0.16453 0.11328,-0.26953l0.01563,-0.30273l0.14453,-2.75586l-0.16016,-7.62305c-0.003,-0.129 -0.06992,-0.2445 -0.16992,-0.3125c-0.061,-0.041 -0.13394,-0.06445 -0.21094,-0.06445zM9.90234,11.42773c-0.166,0 -0.29969,0.13374 -0.30469,0.30274l-0.18945,6.82031l0.18945,3.13086c0.005,0.168 0.13869,0.30078 0.30469,0.30078c0.165,0 0.29673,-0.13273 0.30273,-0.30273l0.21484,-3.12891l-0.21484,-6.82031c-0.006,-0.17 -0.13773,-0.30274 -0.30273,-0.30274zM11.14844,11.57617c-0.181,0 -0.32508,0.14413 -0.33008,0.32813l-0.17383,6.64844l0.17383,3.09961c0.004,0.182 0.14813,0.32617 0.32813,0.32617c0.17935,0 0.3241,-0.14508 0.33008,-0.32812l0.19531,-3.09961l-0.19531,-6.64844c-0.004,-0.183 -0.14813,-0.32617 -0.32812,-0.32617zM8.66406,11.67578c-0.151,0 -0.27234,0.12039 -0.27734,0.27539l-0.20312,6.59961l0.20313,3.15039c0.006,0.154 0.12634,0.27539 0.27734,0.27539c0.14937,0 0.27236,-0.11937 0.2793,-0.27344v-0.00195l0.23047,-3.14844l-0.23047,-6.60156c-0.006,-0.155 -0.1293,-0.27539 -0.2793,-0.27539zM12.40234,11.79297c-0.195,0 -0.35052,0.15652 -0.35352,0.35351l-0.1582,6.4043l0.1582,3.08203c0.004,0.196 0.15752,0.35156 0.35352,0.35156c0.19369,0 0.34947,-0.15352 0.35547,-0.34961v-0.00391l0.17774,-3.07812l-0.17774,-6.40625c-0.003,-0.198 -0.16047,-0.35351 -0.35547,-0.35351zM7.41992,12.22656c-0.136,0 -0.24791,0.11 -0.25391,0.25l-0.21875,6.08984l0.21875,3.18555c0.006,0.139 0.11791,0.24805 0.25391,0.24805c0.13438,0 0.246,-0.11092 0.25195,-0.25l0.24805,-3.18164l-0.24805,-6.0918c-0.006,-0.141 -0.11695,-0.25 -0.25195,-0.25zM6.2207,13.36719c-0.121,0 -0.22056,0.09761 -0.22656,0.22461l-0.23437,4.95703l0.23438,3.20313c0.007,0.125 0.10556,0.22461 0.22656,0.22461c0.12,0 0.21956,-0.09861 0.22656,-0.22461l0.26563,-3.20312l-0.26562,-4.95703c-0.007,-0.125 -0.10656,-0.22461 -0.22656,-0.22461zM3.81641,15.0918c-0.093,0 -0.16878,0.07287 -0.17578,0.17188l-0.26367,3.28516l0.26367,3.17578c0.008,0.098 0.08278,0.17383 0.17578,0.17383c0.092,0 0.16683,-0.07483 0.17383,-0.17383l0.30273,-3.17578l-0.30273,-3.28516c-0.008,-0.098 -0.08183,-0.17187 -0.17383,-0.17187zM2.62891,15.20313c-0.08,0 -0.14239,0.06148 -0.15039,0.14648l-0.28125,3.19727l0.28125,3.08008c0.007,0.085 0.07139,0.14648 0.15039,0.14648c0.078,0 0.13944,-0.06148 0.14844,-0.14648l0.31836,-3.08008l-0.31836,-3.19727c-0.01,-0.084 -0.07044,-0.14648 -0.14844,-0.14648zM5.01367,15.30273c-0.108,0 -0.19613,0.08522 -0.20312,0.19922l-0.24805,3.04688l0.24805,3.20313c0.007,0.112 0.09512,0.19727 0.20313,0.19727c0.107,0 0.19317,-0.08327 0.20117,-0.19727l0.2832,-3.20312l-0.2832,-3.04883c-0.007,-0.113 -0.09417,-0.19727 -0.20117,-0.19727zM1.44727,15.73242c-0.064,0 -0.116,0.05109 -0.125,0.12109l-0.29492,2.69336l0.29492,2.63477c0.008,0.07 0.061,0.12109 0.125,0.12109c0.063,0 0.114,-0.05009 0.125,-0.12109l0.33594,-2.63477l-0.33594,-2.69336c-0.01,-0.071 -0.061,-0.12109 -0.125,-0.12109zM0.33984,16.76367c-0.063,0 -0.11309,0.04919 -0.12109,0.11719l-0.21875,1.66602l0.21875,1.63867c0.008,0.069 0.05909,0.11719 0.12109,0.11719c0.061,0 0.10914,-0.04919 0.11914,-0.11719l0.25977,-1.63867l-0.25977,-1.66602c-0.009,-0.068 -0.05814,-0.11719 -0.11914,-0.11719z"></path></g></g></svg>